%TF.GenerationSoftware,KiCad,Pcbnew,8.0.4*%
%TF.CreationDate,2024-08-25T16:24:30+03:00*%
%TF.ProjectId,OSSM-integrated-board,4f53534d-2d69-46e7-9465-677261746564,rev?*%
%TF.SameCoordinates,Original*%
%TF.FileFunction,Soldermask,Bot*%
%TF.FilePolarity,Negative*%
%FSLAX46Y46*%
G04 Gerber Fmt 4.6, Leading zero omitted, Abs format (unit mm)*
G04 Created by KiCad (PCBNEW 8.0.4) date 2024-08-25 16:24:30*
%MOMM*%
%LPD*%
G01*
G04 APERTURE LIST*
G04 Aperture macros list*
%AMRoundRect*
0 Rectangle with rounded corners*
0 $1 Rounding radius*
0 $2 $3 $4 $5 $6 $7 $8 $9 X,Y pos of 4 corners*
0 Add a 4 corners polygon primitive as box body*
4,1,4,$2,$3,$4,$5,$6,$7,$8,$9,$2,$3,0*
0 Add four circle primitives for the rounded corners*
1,1,$1+$1,$2,$3*
1,1,$1+$1,$4,$5*
1,1,$1+$1,$6,$7*
1,1,$1+$1,$8,$9*
0 Add four rect primitives between the rounded corners*
20,1,$1+$1,$2,$3,$4,$5,0*
20,1,$1+$1,$4,$5,$6,$7,0*
20,1,$1+$1,$6,$7,$8,$9,0*
20,1,$1+$1,$8,$9,$2,$3,0*%
%AMFreePoly0*
4,1,6,1.000000,0.000000,0.500000,-0.750000,-0.500000,-0.750000,-0.500000,0.750000,0.500000,0.750000,1.000000,0.000000,1.000000,0.000000,$1*%
%AMFreePoly1*
4,1,6,0.500000,-0.750000,-0.650000,-0.750000,-0.150000,0.000000,-0.650000,0.750000,0.500000,0.750000,0.500000,-0.750000,0.500000,-0.750000,$1*%
G04 Aperture macros list end*
%ADD10R,1.350000X1.350000*%
%ADD11O,1.350000X1.350000*%
%ADD12O,1.150000X0.750000*%
%ADD13O,1.400000X1.000000*%
%ADD14C,1.020000*%
%ADD15RoundRect,0.250001X-0.499999X0.499999X-0.499999X-0.499999X0.499999X-0.499999X0.499999X0.499999X0*%
%ADD16C,1.500000*%
%ADD17RoundRect,0.135000X-0.135000X-0.185000X0.135000X-0.185000X0.135000X0.185000X-0.135000X0.185000X0*%
%ADD18RoundRect,0.140000X-0.170000X0.140000X-0.170000X-0.140000X0.170000X-0.140000X0.170000X0.140000X0*%
%ADD19RoundRect,0.135000X-0.185000X0.135000X-0.185000X-0.135000X0.185000X-0.135000X0.185000X0.135000X0*%
%ADD20FreePoly0,0.000000*%
%ADD21FreePoly1,0.000000*%
%ADD22RoundRect,0.150000X-0.512500X-0.150000X0.512500X-0.150000X0.512500X0.150000X-0.512500X0.150000X0*%
%ADD23RoundRect,0.250000X0.450000X-0.262500X0.450000X0.262500X-0.450000X0.262500X-0.450000X-0.262500X0*%
%ADD24RoundRect,0.250000X0.250000X0.475000X-0.250000X0.475000X-0.250000X-0.475000X0.250000X-0.475000X0*%
%ADD25RoundRect,0.140000X0.170000X-0.140000X0.170000X0.140000X-0.170000X0.140000X-0.170000X-0.140000X0*%
%ADD26RoundRect,0.135000X0.185000X-0.135000X0.185000X0.135000X-0.185000X0.135000X-0.185000X-0.135000X0*%
%ADD27RoundRect,0.140000X-0.140000X-0.170000X0.140000X-0.170000X0.140000X0.170000X-0.140000X0.170000X0*%
%ADD28RoundRect,0.150000X-0.150000X0.512500X-0.150000X-0.512500X0.150000X-0.512500X0.150000X0.512500X0*%
%ADD29RoundRect,0.112500X-0.112500X0.187500X-0.112500X-0.187500X0.112500X-0.187500X0.112500X0.187500X0*%
%ADD30RoundRect,0.317500X0.317500X-0.382500X0.317500X0.382500X-0.317500X0.382500X-0.317500X-0.382500X0*%
%ADD31R,4.720000X4.800000*%
%ADD32RoundRect,0.150000X0.587500X0.150000X-0.587500X0.150000X-0.587500X-0.150000X0.587500X-0.150000X0*%
%ADD33RoundRect,0.135000X0.135000X0.185000X-0.135000X0.185000X-0.135000X-0.185000X0.135000X-0.185000X0*%
%ADD34RoundRect,0.250000X-0.250000X-0.475000X0.250000X-0.475000X0.250000X0.475000X-0.250000X0.475000X0*%
%ADD35RoundRect,0.250000X-0.450000X0.262500X-0.450000X-0.262500X0.450000X-0.262500X0.450000X0.262500X0*%
%ADD36R,0.900000X1.500000*%
%ADD37R,1.500000X0.900000*%
%ADD38C,0.600000*%
%ADD39R,3.900000X3.900000*%
%ADD40RoundRect,0.112500X0.187500X0.112500X-0.187500X0.112500X-0.187500X-0.112500X0.187500X-0.112500X0*%
G04 APERTURE END LIST*
D10*
%TO.C,J4*%
X100800000Y-101000000D03*
D11*
X98800000Y-101000000D03*
X100800000Y-99000000D03*
X98800000Y-99000000D03*
X100800000Y-97000000D03*
X98800000Y-97000000D03*
X100800000Y-95000000D03*
X98800000Y-95000000D03*
X100800000Y-93000000D03*
X98800000Y-93000000D03*
X100800000Y-91000000D03*
X98800000Y-91000000D03*
%TD*%
D10*
%TO.C,J5*%
X100800000Y-129700000D03*
D11*
X98800000Y-129700000D03*
X100800000Y-127700000D03*
X98800000Y-127700000D03*
X100800000Y-125700000D03*
X98800000Y-125700000D03*
X100800000Y-123700000D03*
X98800000Y-123700000D03*
X100800000Y-121700000D03*
X98800000Y-121700000D03*
X100800000Y-119700000D03*
X98800000Y-119700000D03*
%TD*%
D12*
%TO.C,J3*%
X108850000Y-123300000D03*
D13*
X109500000Y-121150000D03*
X109500000Y-125450000D03*
X115700000Y-121150000D03*
X115700000Y-125450000D03*
D12*
X116350000Y-123300000D03*
%TD*%
D14*
%TO.C,J1*%
X107560000Y-96800000D03*
X107560000Y-102800000D03*
D15*
X111500000Y-99800000D03*
D16*
X108500000Y-99800000D03*
%TD*%
D17*
%TO.C,R7*%
X114440000Y-124050000D03*
X115460000Y-124050000D03*
%TD*%
D18*
%TO.C,C4*%
X112100000Y-118232500D03*
X112100000Y-119192500D03*
%TD*%
D19*
%TO.C,R20*%
X95600000Y-106190000D03*
X95600000Y-107210000D03*
%TD*%
%TO.C,R21*%
X95600000Y-113752500D03*
X95600000Y-114772500D03*
%TD*%
D20*
%TO.C,JP2*%
X102225000Y-117100000D03*
D21*
X103675000Y-117100000D03*
%TD*%
D19*
%TO.C,R19*%
X95600000Y-102665000D03*
X95600000Y-103685000D03*
%TD*%
D18*
%TO.C,C23*%
X137750000Y-120670000D03*
X137750000Y-121630000D03*
%TD*%
D22*
%TO.C,D10*%
X93300000Y-120962500D03*
X93300000Y-119062500D03*
X95575000Y-120012500D03*
%TD*%
D19*
%TO.C,R17*%
X135350000Y-96340000D03*
X135350000Y-97360000D03*
%TD*%
D23*
%TO.C,R2*%
X100800000Y-105312500D03*
X100800000Y-103487500D03*
%TD*%
D24*
%TO.C,C14*%
X95600000Y-109462500D03*
X93700000Y-109462500D03*
%TD*%
D25*
%TO.C,C1*%
X110200000Y-113092500D03*
X110200000Y-112132500D03*
%TD*%
D26*
%TO.C,R29*%
X131350000Y-97310000D03*
X131350000Y-96290000D03*
%TD*%
D27*
%TO.C,C8*%
X141120000Y-121700000D03*
X142080000Y-121700000D03*
%TD*%
D19*
%TO.C,R12*%
X136700000Y-120640000D03*
X136700000Y-121660000D03*
%TD*%
D28*
%TO.C,U3*%
X110200000Y-114512500D03*
X111150000Y-114512500D03*
X112100000Y-114512500D03*
X112100000Y-116787500D03*
X110200000Y-116787500D03*
%TD*%
D29*
%TO.C,D2*%
X113850000Y-117500000D03*
X113850000Y-119600000D03*
%TD*%
D30*
%TO.C,D1*%
X110165000Y-94040000D03*
X110165000Y-91960000D03*
D31*
X106360000Y-93000000D03*
%TD*%
D19*
%TO.C,R27*%
X140050000Y-120690000D03*
X140050000Y-121710000D03*
%TD*%
%TO.C,R13*%
X131000000Y-120940000D03*
X131000000Y-121960000D03*
%TD*%
D32*
%TO.C,D6*%
X120637500Y-115687500D03*
X120637500Y-117587500D03*
X118762500Y-116637500D03*
%TD*%
D33*
%TO.C,R6*%
X110760000Y-122550000D03*
X109740000Y-122550000D03*
%TD*%
D32*
%TO.C,D5*%
X120637500Y-112250000D03*
X120637500Y-114150000D03*
X118762500Y-113200000D03*
%TD*%
D19*
%TO.C,R18*%
X139350000Y-96340000D03*
X139350000Y-97360000D03*
%TD*%
D20*
%TO.C,JP1*%
X102225000Y-114550000D03*
D21*
X103675000Y-114550000D03*
%TD*%
D34*
%TO.C,C15*%
X93700000Y-117062500D03*
X95600000Y-117062500D03*
%TD*%
D18*
%TO.C,C2*%
X110200000Y-118232500D03*
X110200000Y-119192500D03*
%TD*%
D33*
%TO.C,R22*%
X95610000Y-111562500D03*
X94590000Y-111562500D03*
%TD*%
D27*
%TO.C,C7*%
X141120000Y-120700000D03*
X142080000Y-120700000D03*
%TD*%
D18*
%TO.C,C22*%
X139000000Y-120670000D03*
X139000000Y-121630000D03*
%TD*%
D35*
%TO.C,R1*%
X98700000Y-103487500D03*
X98700000Y-105312500D03*
%TD*%
D36*
%TO.C,U1*%
X142410000Y-119100000D03*
X141140000Y-119100000D03*
X139870000Y-119100000D03*
X138600000Y-119100000D03*
X137330000Y-119100000D03*
X136060000Y-119100000D03*
X134790000Y-119100000D03*
X133520000Y-119100000D03*
X132250000Y-119100000D03*
X130980000Y-119100000D03*
X129710000Y-119100000D03*
X128440000Y-119100000D03*
X127170000Y-119100000D03*
X125900000Y-119100000D03*
D37*
X124650000Y-117335000D03*
X124650000Y-116065000D03*
X124650000Y-114795000D03*
X124650000Y-113525000D03*
X124650000Y-112255000D03*
X124650000Y-110985000D03*
X124650000Y-109715000D03*
X124650000Y-108445000D03*
X124650000Y-107175000D03*
X124650000Y-105905000D03*
X124650000Y-104635000D03*
X124650000Y-103365000D03*
D36*
X125900000Y-101600000D03*
X127170000Y-101600000D03*
X128440000Y-101600000D03*
X129710000Y-101600000D03*
X130980000Y-101600000D03*
X132250000Y-101600000D03*
X133520000Y-101600000D03*
X134790000Y-101600000D03*
X136060000Y-101600000D03*
X137330000Y-101600000D03*
X138600000Y-101600000D03*
X139870000Y-101600000D03*
X141140000Y-101600000D03*
X142410000Y-101600000D03*
D38*
X133990000Y-113250000D03*
X135390000Y-113250000D03*
X133290000Y-112550000D03*
X134690000Y-112550000D03*
X136090000Y-112550000D03*
X133990000Y-111850000D03*
D39*
X134690000Y-111850000D03*
D38*
X135390000Y-111850000D03*
X133290000Y-111150000D03*
X134690000Y-111150000D03*
X136090000Y-111150000D03*
X133990000Y-110450000D03*
X135390000Y-110450000D03*
%TD*%
D32*
%TO.C,D7*%
X120637500Y-119100000D03*
X120637500Y-121000000D03*
X118762500Y-120050000D03*
%TD*%
D40*
%TO.C,D3*%
X105700000Y-127700000D03*
X103600000Y-127700000D03*
%TD*%
M02*
