%TF.GenerationSoftware,KiCad,Pcbnew,8.0.4*%
%TF.CreationDate,2024-08-25T16:24:30+03:00*%
%TF.ProjectId,OSSM-integrated-board,4f53534d-2d69-46e7-9465-677261746564,rev?*%
%TF.SameCoordinates,Original*%
%TF.FileFunction,Soldermask,Top*%
%TF.FilePolarity,Negative*%
%FSLAX46Y46*%
G04 Gerber Fmt 4.6, Leading zero omitted, Abs format (unit mm)*
G04 Created by KiCad (PCBNEW 8.0.4) date 2024-08-25 16:24:30*
%MOMM*%
%LPD*%
G01*
G04 APERTURE LIST*
G04 Aperture macros list*
%AMRoundRect*
0 Rectangle with rounded corners*
0 $1 Rounding radius*
0 $2 $3 $4 $5 $6 $7 $8 $9 X,Y pos of 4 corners*
0 Add a 4 corners polygon primitive as box body*
4,1,4,$2,$3,$4,$5,$6,$7,$8,$9,$2,$3,0*
0 Add four circle primitives for the rounded corners*
1,1,$1+$1,$2,$3*
1,1,$1+$1,$4,$5*
1,1,$1+$1,$6,$7*
1,1,$1+$1,$8,$9*
0 Add four rect primitives between the rounded corners*
20,1,$1+$1,$2,$3,$4,$5,0*
20,1,$1+$1,$4,$5,$6,$7,0*
20,1,$1+$1,$6,$7,$8,$9,0*
20,1,$1+$1,$8,$9,$2,$3,0*%
G04 Aperture macros list end*
%ADD10R,1.350000X1.350000*%
%ADD11O,1.350000X1.350000*%
%ADD12R,1.500000X1.000000*%
%ADD13R,3.200000X0.700000*%
%ADD14R,4.500000X3.150000*%
%ADD15R,0.300000X0.950000*%
%ADD16O,1.150000X0.750000*%
%ADD17O,1.400000X1.000000*%
%ADD18RoundRect,0.243750X-0.456250X0.243750X-0.456250X-0.243750X0.456250X-0.243750X0.456250X0.243750X0*%
%ADD19C,1.020000*%
%ADD20RoundRect,0.250001X-0.499999X0.499999X-0.499999X-0.499999X0.499999X-0.499999X0.499999X0.499999X0*%
%ADD21C,1.500000*%
%ADD22RoundRect,0.140000X0.140000X0.170000X-0.140000X0.170000X-0.140000X-0.170000X0.140000X-0.170000X0*%
G04 APERTURE END LIST*
D10*
%TO.C,J4*%
X100800000Y-101000000D03*
D11*
X98800000Y-101000000D03*
X100800000Y-99000000D03*
X98800000Y-99000000D03*
X100800000Y-97000000D03*
X98800000Y-97000000D03*
X100800000Y-95000000D03*
X98800000Y-95000000D03*
X100800000Y-93000000D03*
X98800000Y-93000000D03*
X100800000Y-91000000D03*
X98800000Y-91000000D03*
%TD*%
D12*
%TO.C,D4*%
X137800000Y-106350000D03*
X137800000Y-104750000D03*
X137800000Y-103150000D03*
X132900000Y-103150000D03*
X132900000Y-104750000D03*
X132900000Y-106350000D03*
%TD*%
D10*
%TO.C,J5*%
X100800000Y-129700000D03*
D11*
X98800000Y-129700000D03*
X100800000Y-127700000D03*
X98800000Y-127700000D03*
X100800000Y-125700000D03*
X98800000Y-125700000D03*
X100800000Y-123700000D03*
X98800000Y-123700000D03*
X100800000Y-121700000D03*
X98800000Y-121700000D03*
X100800000Y-119700000D03*
X98800000Y-119700000D03*
%TD*%
D12*
%TO.C,SW2*%
X125100000Y-101850000D03*
X117300000Y-101850000D03*
%TD*%
D13*
%TO.C,J2*%
X125800000Y-123145000D03*
X125800000Y-121875000D03*
X125800000Y-120605000D03*
X125800000Y-119335000D03*
X125800000Y-118065000D03*
X125800000Y-116795000D03*
X125800000Y-115525000D03*
X125800000Y-114255000D03*
D14*
X141350000Y-121525000D03*
X141350000Y-115875000D03*
%TD*%
D15*
%TO.C,J3*%
X109850000Y-122545000D03*
X110350000Y-122545000D03*
X110850000Y-122545000D03*
X111350000Y-122545000D03*
X111850000Y-122545000D03*
X112350000Y-122545000D03*
X112850000Y-122545000D03*
X113350000Y-122545000D03*
X113850000Y-122545000D03*
X114350000Y-122545000D03*
X114850000Y-122545000D03*
X115350000Y-122545000D03*
X115350000Y-124055000D03*
X114850000Y-124055000D03*
X114350000Y-124055000D03*
X113850000Y-124055000D03*
X113350000Y-124055000D03*
X112850000Y-124055000D03*
X112350000Y-124055000D03*
X111850000Y-124055000D03*
X111350000Y-124055000D03*
X110850000Y-124055000D03*
X110350000Y-124055000D03*
X109850000Y-124055000D03*
D16*
X108850000Y-123300000D03*
D17*
X109500000Y-121150000D03*
X109500000Y-125450000D03*
X115700000Y-121150000D03*
X115700000Y-125450000D03*
D16*
X116350000Y-123300000D03*
%TD*%
D18*
%TO.C,D8*%
X135350000Y-95912500D03*
X135350000Y-97787500D03*
%TD*%
D19*
%TO.C,J1*%
X107560000Y-96800000D03*
X107560000Y-102800000D03*
D20*
X111500000Y-99800000D03*
D21*
X108500000Y-99800000D03*
%TD*%
D18*
%TO.C,D15*%
X131350000Y-95912500D03*
X131350000Y-97787500D03*
%TD*%
D22*
%TO.C,C9*%
X140580000Y-104750000D03*
X139620000Y-104750000D03*
%TD*%
D12*
%TO.C,SW3*%
X117300000Y-96350000D03*
X125100000Y-96350000D03*
%TD*%
%TO.C,SW1*%
X117300000Y-107350000D03*
X125100000Y-107350000D03*
%TD*%
D18*
%TO.C,D9*%
X139350000Y-95912500D03*
X139350000Y-97787500D03*
%TD*%
M02*
