M48
; DRILL file {KiCad 8.0.4} date 2024-08-25T16:24:44+0300
; FORMAT={-:-/ absolute / metric / decimal}
; #@! TF.CreationDate,2024-08-25T16:24:44+03:00
; #@! TF.GenerationSoftware,Kicad,Pcbnew,8.0.4
; #@! TF.FileFunction,MixedPlating,1,2
FMAT,2
METRIC
; #@! TA.AperFunction,Plated,PTH,ComponentDrill
T1C0.200
; #@! TA.AperFunction,Plated,PTH,ComponentDrill
T2C0.350
; #@! TA.AperFunction,Plated,PTH,ViaDrill
T3C0.400
; #@! TA.AperFunction,Plated,PTH,ComponentDrill
T4C0.600
; #@! TA.AperFunction,Plated,PTH,ComponentDrill
T5C0.800
; #@! TA.AperFunction,Plated,PTH,ComponentDrill
T6C1.020
; #@! TA.AperFunction,NonPlated,NPTH,ComponentDrill
T7C1.020
%
G90
G05
T1
X133.29Y-111.15
X133.29Y-112.55
X133.99Y-110.45
X133.99Y-111.85
X133.99Y-113.25
X134.69Y-111.15
X134.69Y-112.55
X135.39Y-110.45
X135.39Y-111.85
X135.39Y-113.25
X136.09Y-111.15
X136.09Y-112.55
T3
X93.7Y-106.35
X103.5Y-105.312
X104.45Y-91.05
X104.45Y-92.35
X104.45Y-93.65
X104.45Y-94.95
X105.1Y-121.55
X105.2Y-115.3
X105.2Y-116.35
X105.75Y-91.05
X105.75Y-92.35
X105.75Y-93.65
X105.75Y-94.95
X106.95Y-91.05
X106.95Y-92.35
X106.95Y-93.65
X106.95Y-94.95
X108.25Y-91.05
X108.25Y-92.35
X108.25Y-93.65
X108.25Y-94.95
X110.75Y-121.4
X111.15Y-118.65
X111.2Y-112.4
X111.45Y-93.6
X111.5Y-91.4
X111.5Y-92.65
X111.5Y-94.7
X112.075Y-120.9
X112.075Y-125.7
X113.125Y-120.9
X113.125Y-125.7
X114.25Y-121.0
X114.25Y-125.7
X115.0Y-114.6
X115.05Y-112.45
X115.05Y-113.45
X115.052Y-111.498
X115.7Y-96.35
X115.75Y-107.35
X116.0Y-115.55
X118.8Y-101.85
X119.85Y-122.267
X120.55Y-123.35
X122.05Y-115.7
X122.1Y-119.1
X122.1Y-121.0
X122.15Y-112.25
X122.15Y-114.15
X122.15Y-117.6
X123.05Y-102.35
X123.4Y-122.55
X127.2Y-103.7
X128.15Y-112.65
X128.25Y-114.25
X128.3Y-122.05
X128.5Y-116.8
X128.5Y-120.95
X128.6Y-115.55
X128.9Y-124.25
X129.5Y-108.0
X129.7Y-117.15
X129.8Y-104.6
X130.95Y-117.5
X131.35Y-99.1
X133.7Y-95.85
X133.9Y-97.1
X135.5Y-99.05
X137.5Y-95.9
X138.1Y-123.0
X139.55Y-113.55
X139.65Y-105.95
X141.35Y-124.05
X142.4Y-100.15
X142.4Y-103.0
X142.45Y-116.9
T5
X98.8Y-91.0
X98.8Y-93.0
X98.8Y-95.0
X98.8Y-97.0
X98.8Y-99.0
X98.8Y-101.0
X98.8Y-119.7
X98.8Y-121.7
X98.8Y-123.7
X98.8Y-125.7
X98.8Y-127.7
X98.8Y-129.7
X100.8Y-91.0
X100.8Y-93.0
X100.8Y-95.0
X100.8Y-97.0
X100.8Y-99.0
X100.8Y-101.0
X100.8Y-119.7
X100.8Y-121.7
X100.8Y-123.7
X100.8Y-125.7
X100.8Y-127.7
X100.8Y-129.7
T6
X108.5Y-99.8
X111.5Y-99.8
T7
X107.56Y-96.8
X107.56Y-102.8
T2
G00X108.65Y-123.3
M15
G01X109.05Y-123.3
M16
G05
G00X116.15Y-123.3
M15
G01X116.55Y-123.3
M16
G05
T4
G00X109.3Y-121.15
M15
G01X109.7Y-121.15
M16
G05
G00X109.3Y-125.45
M15
G01X109.7Y-125.45
M16
G05
G00X115.5Y-121.15
M15
G01X115.9Y-121.15
M16
G05
G00X115.5Y-125.45
M15
G01X115.9Y-125.45
M16
G05
M30
